<svg xmlns="http://www.w3.org/2000/svg" width="1098" height="310" viewBox="0 0 1098 310" font-family="Segoe UI, Helvetica, Arial, sans-serif">
<rect width="1098" height="310" fill="white"/>
<defs><marker id="arrow" markerWidth="10" markerHeight="10" refX="8" refY="3" orient="auto" markerUnits="strokeWidth"><path d="M0,0 L8,3 L0,6 Z" fill="#666"/></marker></defs>
<path d="M234,72.0 L298,72.0" stroke="#666" stroke-width="1.6" fill="none" marker-end="url(#arrow)"/>
<path d="M514,72.0 L578,72.0" stroke="#666" stroke-width="1.6" fill="none" marker-end="url(#arrow)"/>
<path d="M794,72.0 L858,72.0" stroke="#666" stroke-width="1.6" fill="none" marker-end="url(#arrow)"/>
<path d="M969.0,120 L969.0,184" stroke="#666" stroke-width="1.6" fill="none" marker-end="url(#arrow)"/>
<path d="M864,238.0 L800,238.0" stroke="#666" stroke-width="1.6" fill="none" marker-end="url(#arrow)"/>
<path d="M584,238.0 L520,238.0" stroke="#666" stroke-width="1.6" fill="none" marker-end="url(#arrow)"/>
<path d="M304,238.0 L240,238.0" stroke="#666" stroke-width="1.6" fill="none" marker-end="url(#arrow)"/>
<rect x="24" y="24" width="210" height="96" rx="10" fill="#ececec" stroke="#bbbbbb" stroke-width="1.5"/><text x="36" y="46" font-size="13" fill="#999">1</text><text x="129.0" y="64" font-size="17" font-weight="600" fill="#111" text-anchor="middle">You</text><text x="129.0" y="86" font-size="13.5" fill="#555" text-anchor="middle">ticker + event</text><text x="129.0" y="103" font-size="13.5" fill="#555" text-anchor="middle">+ transcript</text>
<rect x="304" y="24" width="210" height="96" rx="10" fill="#ececec" stroke="#bbbbbb" stroke-width="1.5"/><text x="316" y="46" font-size="13" fill="#999">2</text><text x="409.0" y="64" font-size="17" font-weight="600" fill="#111" text-anchor="middle">Codex agent</text><text x="409.0" y="86" font-size="13.5" fill="#555" text-anchor="middle">holds full</text><text x="409.0" y="103" font-size="13.5" fill="#555" text-anchor="middle">context</text>
<rect x="584" y="24" width="210" height="96" rx="10" fill="#cfe3f7" stroke="#8fb8dd" stroke-width="1.5"/><text x="596" y="46" font-size="13" fill="#999">3</text><text x="689.0" y="64" font-size="17" font-weight="600" fill="#111" text-anchor="middle">Skill 1</text><text x="689.0" y="86" font-size="13.5" fill="#555" text-anchor="middle">build source</text><text x="689.0" y="103" font-size="13.5" fill="#555" text-anchor="middle">pack</text>
<rect x="864" y="24" width="210" height="96" rx="10" fill="#f7ddc8" stroke="#e0b48f" stroke-width="1.5"/><text x="876" y="46" font-size="13" fill="#999">4</text><text x="969.0" y="64" font-size="17" font-weight="600" fill="#111" text-anchor="middle">Python</text><text x="969.0" y="86" font-size="13.5" fill="#555" text-anchor="middle">ingest · sanitise</text><text x="969.0" y="103" font-size="13.5" fill="#555" text-anchor="middle">SEC · Tavily</text>
<rect x="864" y="190" width="210" height="96" rx="10" fill="#f7ddc8" stroke="#e0b48f" stroke-width="1.5"/><text x="876" y="212" font-size="13" fill="#999">5</text><text x="969.0" y="230" font-size="17" font-weight="600" fill="#111" text-anchor="middle">Source pack</text><text x="969.0" y="252" font-size="13.5" fill="#555" text-anchor="middle">hashed +</text><text x="969.0" y="269" font-size="13.5" fill="#555" text-anchor="middle">timestamped</text>
<rect x="584" y="190" width="210" height="96" rx="10" fill="#f7ddc8" stroke="#e0b48f" stroke-width="1.5"/><text x="596" y="212" font-size="13" fill="#999">6</text><text x="689.0" y="230" font-size="17" font-weight="600" fill="#111" text-anchor="middle">Agent writes claims</text><text x="689.0" y="252" font-size="13.5" fill="#555" text-anchor="middle">each claim +</text><text x="689.0" y="269" font-size="13.5" fill="#555" text-anchor="middle">exact quote</text>
<rect x="304" y="190" width="210" height="96" rx="10" fill="#cfe3f7" stroke="#8fb8dd" stroke-width="1.5"/><text x="316" y="212" font-size="13" fill="#999">7</text><text x="409.0" y="230" font-size="17" font-weight="600" fill="#111" text-anchor="middle">Skill 2</text><text x="409.0" y="252" font-size="13.5" fill="#555" text-anchor="middle">produce signal card</text><text x="409.0" y="269" font-size="13.5" fill="#555" text-anchor="middle">+ validators</text>
<rect x="24" y="190" width="210" height="96" rx="10" fill="#d6ecd2" stroke="#a9d29c" stroke-width="1.5"/><text x="36" y="212" font-size="13" fill="#999">8</text><text x="129.0" y="230" font-size="17" font-weight="600" fill="#111" text-anchor="middle">Signal card</text><text x="129.0" y="252" font-size="13.5" fill="#555" text-anchor="middle">only if</text><text x="129.0" y="269" font-size="13.5" fill="#555" text-anchor="middle">validation passes</text>
</svg>